<svg width="512" height="512" viewBox="0 0 512 512" fill="none" xmlns="http://www.w3.org/2000/svg">
<rect width="512" height="512" fill="white"/>
<path fill-rule="evenodd" clip-rule="evenodd" d="M78.1351 259.63C96.1777 241.587 125.431 241.587 143.473 259.63L176.142 292.299L143.473 324.968C125.431 343.011 96.1777 343.011 78.1351 324.968C60.0925 306.925 60.0925 277.673 78.1351 259.63ZM150.733 187.032C168.776 168.989 198.029 168.989 216.071 187.032L288.669 259.63C306.39 277.35 306.706 305.884 289.618 323.991L288.669 324.968C270.626 343.011 241.374 343.011 223.331 324.968L150.733 252.37L149.673 251.337C136.47 238.797 118.692 233.863 101.888 236.535L101.098 236.667L150.733 187.032ZM368.527 259.63C386.569 241.587 415.822 241.587 433.865 259.63C451.908 277.673 451.908 306.925 433.865 324.968L432.888 325.917C414.781 343.005 386.247 342.688 368.527 324.968L335.858 292.299L368.527 259.63ZM295.929 187.032C313.972 168.989 343.224 168.989 361.267 187.032L410.902 236.667L410.112 236.535C392.854 233.791 374.568 239.069 361.267 252.37L311.628 302.009L311.764 301.215C314.508 283.957 309.23 265.671 295.929 252.37L263.26 219.701L295.929 187.032Z" fill="#2563EB"/>
</svg>
