<svg width="512" height="512" viewBox="0 0 512 512" fill="none" xmlns="http://www.w3.org/2000/svg">
<rect width="512" height="512" fill="white"/>
<path fill-rule="evenodd" clip-rule="evenodd" d="M135.267 258.464C147.515 246.217 167.371 246.217 179.618 258.464L201.794 280.639L179.618 302.815C167.371 315.062 147.515 315.062 135.267 302.815C123.02 290.568 123.02 270.711 135.267 258.464ZM184.546 209.185C196.793 196.938 216.65 196.938 228.897 209.185L278.175 258.464C290.204 270.492 290.419 289.861 278.82 302.151L278.175 302.815C265.928 315.062 246.072 315.062 233.825 302.815L184.546 253.536L183.826 252.835C174.865 244.323 162.797 240.974 151.391 242.788L150.854 242.877L184.546 209.185ZM332.382 258.464C344.629 246.217 364.485 246.217 376.733 258.464C388.98 270.711 388.98 290.568 376.733 302.815L376.069 303.459C363.779 315.058 344.41 314.843 332.382 302.815L310.206 280.639L332.382 258.464ZM283.103 209.185C295.35 196.938 315.207 196.938 327.454 209.185L361.146 242.877L360.609 242.788C348.895 240.924 336.483 244.507 327.454 253.536L293.76 287.23L293.852 286.691C295.715 274.977 292.132 262.565 283.103 253.536L260.928 231.361L283.103 209.185Z" fill="#2563EB"/>
</svg>
